HIERARCHY
ROOT Hips
{
	OFFSET 0.000000 89.005402 0.000000
	CHANNELS 6 Xposition Yposition Zposition Xrotation Yrotation Zrotation
	JOINT Spine
	{
		OFFSET 0.116900 10.681000 0.373400
		CHANNELS 3 Xrotation Yrotation Zrotation
		JOINT Spine1
		{
			OFFSET 0.000000 13.840401 0.053500
			CHANNELS 3 Xrotation Yrotation Zrotation
			JOINT Spine2
			{
				OFFSET 0.000000 14.712700 -0.366200
				CHANNELS 3 Xrotation Yrotation Zrotation
				JOINT Neck
				{
					OFFSET 0.000000 35.415497 -3.314200
					CHANNELS 3 Xrotation Yrotation Zrotation
					JOINT Head
					{
						OFFSET 0.000000 16.899200 1.218300
						CHANNELS 3 Xrotation Yrotation Zrotation
						JOINT HeadTop_End
						{
							OFFSET 0.000000 22.206207 2.192500
							CHANNELS 3 Xrotation Yrotation Zrotation
							End Site
							{
								OFFSET 0.000000 22.314178 0.000000
							}
						}
					}
				}
				JOINT LeftShoulder
				{
					OFFSET 12.896400 26.716293 -4.548400
					CHANNELS 3 Xrotation Yrotation Zrotation
					JOINT LeftArm
					{
						OFFSET 19.027000 -4.857010 -1.718400
						CHANNELS 3 Xrotation Yrotation Zrotation
						JOINT LeftForeArm
						{
							OFFSET 24.179897 0.000000 0.000000
							CHANNELS 3 Xrotation Yrotation Zrotation
							JOINT LeftHand
							{
								OFFSET 27.156403 0.000000 0.000000
								CHANNELS 3 Xrotation Yrotation Zrotation
								JOINT LeftHandIndex1
								{
									OFFSET 16.441200 0.000000 0.000000
									CHANNELS 3 Xrotation Yrotation Zrotation
									JOINT LeftHandIndex2
									{
										OFFSET 4.821899 0.000000 0.000000
										CHANNELS 3 Xrotation Yrotation Zrotation
										JOINT LeftHandIndex3
										{
											OFFSET 6.386497 0.000000 0.000000
											CHANNELS 3 Xrotation Yrotation Zrotation
											JOINT LeftHandIndex4
											{
												OFFSET 5.188988 0.000000 0.000000
												CHANNELS 3 Xrotation Yrotation Zrotation
												End Site
												{
													OFFSET -0.178703 5.185913 0.000177
												}
											}
										}
									}
								}
								JOINT LeftHandThumb1
								{
									OFFSET 6.534897 -5.032593 5.900300
									CHANNELS 3 Xrotation Yrotation Zrotation
									JOINT LeftHandThumb2
									{
										OFFSET 3.818176 -2.204422 2.204423
										CHANNELS 3 Xrotation Yrotation Zrotation
										JOINT LeftHandThumb3
										{
											OFFSET 3.252098 -1.877594 1.877601
											CHANNELS 3 Xrotation Yrotation Zrotation
											JOINT LeftHandThumb4
											{
												OFFSET 5.251778 -3.032120 3.032117
												CHANNELS 3 Xrotation Yrotation Zrotation
												End Site
												{
													OFFSET 0.000023 6.780014 0.000000
												}
											}
										}
									}
								}
							}
						}
					}
				}
				JOINT RightShoulder
				{
					OFFSET -12.896300 26.716293 -4.548400
					CHANNELS 3 Xrotation Yrotation Zrotation
					JOINT RightArm
					{
						OFFSET -19.027000 -4.857010 -1.718400
						CHANNELS 3 Xrotation Yrotation Zrotation
						JOINT RightForeArm
						{
							OFFSET -24.179897 0.000000 0.000000
							CHANNELS 3 Xrotation Yrotation Zrotation
							JOINT RightHand
							{
								OFFSET -27.156403 0.000000 0.000000
								CHANNELS 3 Xrotation Yrotation Zrotation
								JOINT RightHandThumb1
								{
									OFFSET -6.591202 -4.852203 5.988100
									CHANNELS 3 Xrotation Yrotation Zrotation
									JOINT RightHandThumb2
									{
										OFFSET -3.818176 -2.204422 2.204423
										CHANNELS 3 Xrotation Yrotation Zrotation
										JOINT RightHandThumb3
										{
											OFFSET -3.252098 -1.877594 1.877601
											CHANNELS 3 Xrotation Yrotation Zrotation
											JOINT RightHandThumb4
											{
												OFFSET -5.251778 -3.032120 3.032117
												CHANNELS 3 Xrotation Yrotation Zrotation
												End Site
												{
													OFFSET -0.000023 6.780014 0.000000
												}
											}
										}
									}
								}
								JOINT RightHandIndex1
								{
									OFFSET -16.029404 0.000000 0.000000
									CHANNELS 3 Xrotation Yrotation Zrotation
									JOINT RightHandIndex2
									{
										OFFSET -5.213303 0.000000 0.000000
										CHANNELS 3 Xrotation Yrotation Zrotation
										JOINT RightHandIndex3
										{
											OFFSET -6.386528 0.000000 0.000000
											CHANNELS 3 Xrotation Yrotation Zrotation
											JOINT RightHandIndex4
											{
												OFFSET -5.189026 0.000000 0.000000
												CHANNELS 3 Xrotation Yrotation Zrotation
												End Site
												{
													OFFSET 0.236702 5.183624 0.001972
												}
											}
										}
									}
								}
							}
						}
					}
				}
			}
		}
	}
	JOINT LeftUpLeg
	{
		OFFSET 14.073000 -7.904099 -1.463000
		CHANNELS 3 Xrotation Yrotation Zrotation
		JOINT LeftLeg
		{
			OFFSET -0.109806 -34.073280 4.093200
			CHANNELS 3 Xrotation Yrotation Zrotation
			JOINT LeftFoot
			{
				OFFSET 0.109806 -29.899420 -6.319000
				CHANNELS 3 Xrotation Yrotation Zrotation
				JOINT LeftToeBase
				{
					OFFSET 1.551100 -14.988700 20.535801
					CHANNELS 3 Xrotation Yrotation Zrotation
					JOINT LeftToe_End
					{
						OFFSET 0.221200 0.570800 13.248301
						CHANNELS 3 Xrotation Yrotation Zrotation
						End Site
						{
							OFFSET 0.000000 13.262435 0.000000
						}
					}
				}
			}
		}
	}
	JOINT RightUpLeg
	{
		OFFSET -13.839300 -7.904099 -1.463000
		CHANNELS 3 Xrotation Yrotation Zrotation
		JOINT RightLeg
		{
			OFFSET 0.109694 -34.073219 4.093300
			CHANNELS 3 Xrotation Yrotation Zrotation
			JOINT RightFoot
			{
				OFFSET -0.109694 -29.899384 -6.319200
				CHANNELS 3 Xrotation Yrotation Zrotation
				JOINT RightToeBase
				{
					OFFSET -1.551100 -14.988700 20.535801
					CHANNELS 3 Xrotation Yrotation Zrotation
					JOINT RightToe_End
					{
						OFFSET -0.221200 0.570900 13.248299
						CHANNELS 3 Xrotation Yrotation Zrotation
						End Site
						{
							OFFSET 0.000000 13.262440 0.000000
						}
					}
				}
			}
		}
	}
}
MOTION
Frames: 4
Frame Time: 0.033333
0.091667 50.685837 9.217733 0.146018 0.072628 0.868989 10.430742 0.134444 -1.490141 -0.199081 0.213341 -0.355398 -0.199407 0.248542 -0.300816 -1.001745 -1.296891 0.468905 -8.883635 -4.339413 -5.323841 -0.000000 0.000000 0.000000 0.816163 -15.260157 -7.869204 4.746418 -21.216693 -54.862395 -0.000025 -62.197554 -0.000029 31.062946 4.315208 41.770647 -0.235316 2.798388 -26.913104 0.396821 2.121280 -21.189064 0.083116 0.984416 -9.652937 0.000002 -0.000001 0.000000 6.610499 1.798528 20.801071 2.716382 20.172564 -24.389166 -5.533044 29.848422 5.068637 0.000001 0.000002 0.000001 3.158425 -4.378692 8.782016 -3.950014 37.253126 63.733178 0.000017 55.138625 -0.000006 43.537518 4.740929 -36.277997 -9.382002 -1.613120 -17.605291 3.557060 -24.337009 34.656848 -6.608464 -37.497329 -11.176174 0.000001 -0.000005 0.000001 2.957874 1.012905 13.528895 0.472457 -2.045704 26.006734 0.059769 -0.744402 9.177801 -0.000001 -0.000000 0.000002 -88.311675 -8.288404 14.579473 82.355211 2.962164 -0.527236 7.628413 -6.769821 -8.242649 -0.102536 0.000006 -0.000001 0.000000 0.000000 0.000000 -89.573949 9.722224 -10.618737 82.897275 -2.608415 -1.085822 8.623028 -0.169114 9.299578 -0.191631 -0.000003 -0.000001 -0.000000 0.000001 0.000000 
0.090507 50.685890 9.213579 0.129984 0.071842 0.871532 10.449588 0.135215 -1.489795 -0.199081 0.213341 -0.355398 -0.199407 0.248541 -0.300816 -0.979958 -1.296891 0.478362 -8.869982 -4.334456 -5.328249 0.000000 -0.000000 -0.000000 0.813935 -15.329919 -7.841636 4.729503 -21.136213 -54.925745 0.000028 -62.236936 0.000006 31.066897 4.311010 41.806177 -0.252584 2.787218 -26.945595 0.396827 2.121259 -21.189067 0.083124 0.984419 -9.652928 -0.000001 0.000000 0.000001 6.611438 1.793628 20.794842 2.763615 20.170527 -24.433482 -5.551809 29.856642 5.112451 0.000001 -0.000001 -0.000000 3.160387 -4.377504 8.806564 -3.980085 37.211192 63.739189 -0.000013 55.153081 0.000014 43.596264 4.790378 -36.243945 -9.379165 -1.598630 -17.585164 3.675177 -24.297956 34.784357 -6.718764 -37.545813 -11.390149 0.000001 0.000004 0.000001 2.956855 1.017135 13.529263 0.470492 -2.041644 25.951608 0.059042 -0.739997 9.122737 -0.000000 0.000001 -0.000000 -88.292851 -8.289302 14.581148 82.354569 2.960668 -0.527589 7.627103 -6.768861 -8.248971 -0.102542 -0.000001 -0.000003 -0.000000 0.000000 0.000000 -89.572945 9.721147 -10.618040 82.890356 -2.619472 -1.085150 8.645300 -0.168552 9.256977 -0.163552 -0.000001 0.000002 0.000000 0.000000 0.000000 
0.088535 50.687668 9.209939 0.119537 0.071997 0.882844 10.460017 0.130414 -1.489919 -0.199080 0.213341 -0.355398 -0.199406 0.248542 -0.300816 -0.961630 -1.296892 0.489662 -8.876736 -4.326163 -5.305869 0.000000 0.000000 0.000001 0.817739 -15.354375 -7.841506 4.721086 -21.103724 -54.939972 0.000054 -62.247680 0.000063 31.073160 4.320268 41.799084 -0.270170 2.773723 -26.949661 0.396826 2.121267 -21.189069 0.083121 0.984415 -9.652932 0.000001 0.000001 0.000003 6.565756 1.794541 20.808079 2.819364 20.167394 -24.486199 -5.571489 29.862110 5.168335 0.000002 -0.000003 -0.000002 3.162289 -4.376129 8.830851 -4.011225 37.167738 63.756968 0.000002 55.159443 0.000007 43.647463 4.813401 -36.228433 -9.395538 -1.593406 -17.580381 3.756825 -24.269373 34.871995 -6.796913 -37.582720 -11.541976 0.000003 0.000004 0.000001 2.957385 1.014949 13.529078 0.470858 -2.042398 25.961400 0.059163 -0.740776 9.132510 -0.000000 -0.000001 0.000005 -88.272047 -8.288263 14.582777 82.326196 2.959245 -0.527868 7.647005 -6.769654 -8.259836 -0.102533 0.000001 0.000002 0.000000 -0.000001 0.000000 -89.566210 9.722784 -10.604161 82.889776 -2.624967 -1.095533 8.646004 -0.167481 9.263637 -0.176293 -0.000001 -0.000002 -0.000000 -0.000001 -0.000000 
0.086118 50.690849 9.207655 0.115848 0.070775 0.894172 10.462012 0.129177 -1.489963 -0.199081 0.213341 -0.355398 -0.199407 0.248541 -0.300816 -0.952638 -1.296891 0.502943 -8.880012 -4.330651 -5.276109 0.000000 0.000001 -0.000000 0.818879 -15.353551 -7.855717 4.719801 -21.105165 -54.927685 -0.000031 -62.249668 -0.000036 31.067768 4.321307 41.774209 -0.276680 2.767591 -26.933446 0.397087 2.121949 -21.196456 0.083253 0.985171 -9.660331 0.000002 0.000002 -0.000003 6.538989 1.796632 20.816789 2.837011 20.165684 -24.503136 -5.577442 29.867082 5.191484 0.000001 -0.000003 -0.000002 3.163489 -4.373358 8.847956 -4.036825 37.134191 63.779391 -0.000004 55.162595 -0.000008 43.685873 4.809514 -36.224547 -9.407417 -1.597836 -17.587262 3.794775 -24.250850 34.913847 -6.837816 -37.602889 -11.619039 0.000003 0.000002 0.000002 2.957256 1.015440 13.529117 0.471758 -2.044270 25.986939 0.059493 -0.742821 9.158020 -0.000000 -0.000001 -0.000001 -88.258038 -8.284071 14.584470 82.310446 2.956584 -0.528303 7.653718 -6.769333 -8.260104 -0.097310 -0.000006 -0.000000 0.000000 0.000000 -0.000000 -89.561033 9.729805 -10.595702 82.887378 -2.632846 -1.105096 8.646952 -0.165773 9.277863 -0.199428 0.000001 -0.000003 -0.000000 -0.000000 0.000000 
